<svg width="91" height="37" viewBox="0 0 91 37" fill="none" xmlns="http://www.w3.org/2000/svg">
<rect width="91" height="37" rx="5" fill="#D9D9D9"/>
<path d="M38.76 15.02C38.9867 15.2867 39.2067 15.56 39.42 15.84C39.6333 16.1067 39.78 16.3867 39.86 16.68C39.8867 16.8133 39.8867 16.9533 39.86 17.1C39.8333 17.2467 39.76 17.3733 39.64 17.48C39.44 17.6133 39.2267 17.68 39 17.68C38.7467 17.68 38.5 17.62 38.26 17.5C38.0333 17.38 37.8467 17.26 37.7 17.14C37.4733 16.94 37.2733 16.7533 37.1 16.58C36.9267 16.3933 36.7467 16.2 36.56 16C36.4133 15.84 36.26 15.68 36.1 15.52C35.94 15.3467 35.7933 15.1667 35.66 14.98L33.64 16.96C33.4267 17.1867 33.2 17.3467 32.96 17.44C32.72 17.52 32.4933 17.56 32.28 17.56C32.2133 17.56 32.1133 17.5467 31.98 17.52C31.7267 17.4533 31.5533 17.3333 31.46 17.16C31.38 17.0133 31.3533 16.8467 31.38 16.66C31.4067 16.4733 31.46 16.3067 31.54 16.16C31.6333 16 31.7333 15.8533 31.84 15.72C31.96 15.5867 32.08 15.4467 32.2 15.3C32.5467 14.9133 32.8867 14.5467 33.22 14.2C33.5533 13.84 33.9133 13.46 34.3 13.06L34.28 12.44C34.1733 12.4533 34.04 12.46 33.88 12.46C33.72 12.4467 33.5267 12.44 33.3 12.44C33.1533 12.44 32.9867 12.4467 32.8 12.46C32.6133 12.4733 32.4267 12.4667 32.24 12.44C32.0667 12.4133 31.9067 12.36 31.76 12.28C31.6133 12.1867 31.5 12.04 31.42 11.84C31.3533 11.6933 31.3133 11.5267 31.3 11.34C31.2867 11.1533 31.3 10.98 31.34 10.82C31.38 10.6333 31.48 10.5067 31.64 10.44C31.8133 10.36 31.9733 10.3067 32.12 10.28C32.2533 10.2533 32.3733 10.24 32.48 10.24C32.52 10.24 32.56 10.2467 32.6 10.26C32.64 10.26 32.68 10.26 32.72 10.26H34.34C34.3533 10.1 34.36 9.92667 34.36 9.74C34.3733 9.54 34.4133 9.37333 34.48 9.24C34.6 8.97333 34.8133 8.78667 35.12 8.68C35.3467 8.6 35.56 8.56667 35.76 8.58C35.96 8.59333 36.1333 8.64667 36.28 8.74C36.44 8.82 36.5667 8.93333 36.66 9.08C36.7533 9.21333 36.8 9.35333 36.8 9.5C36.8 9.52667 36.8 9.58 36.8 9.66C36.8133 9.72667 36.82 9.8 36.82 9.88C36.82 9.96 36.82 10.04 36.82 10.12C36.82 10.2 36.82 10.2467 36.82 10.26H37.98C38.4467 10.26 38.82 10.2933 39.1 10.36C39.38 10.4133 39.6133 10.5733 39.8 10.84C39.8533 10.92 39.8933 11.0333 39.92 11.18C39.9467 11.3133 39.9467 11.4533 39.92 11.6C39.9067 11.7333 39.8733 11.86 39.82 11.98C39.7667 12.1 39.7 12.1867 39.62 12.24C39.5133 12.28 39.3933 12.3267 39.26 12.38C39.14 12.42 39.0267 12.44 38.92 12.44C38.76 12.4533 38.6133 12.46 38.48 12.46C38.36 12.4467 38.22 12.44 38.06 12.44C37.82 12.44 37.6333 12.4467 37.5 12.46C37.3667 12.46 37.2067 12.4533 37.02 12.44V13.06C37.0867 13.1133 37.1733 13.22 37.28 13.38C37.3867 13.54 37.4933 13.6733 37.6 13.78C37.7067 13.8867 37.82 14.0067 37.94 14.14C38.06 14.26 38.1867 14.3933 38.32 14.54C38.4133 14.6333 38.4933 14.72 38.56 14.8C38.6267 14.88 38.6933 14.9533 38.76 15.02ZM44.32 25.12C44.2533 25.2933 44.1267 25.4333 43.94 25.54C43.7933 25.6333 43.6333 25.6867 43.46 25.7C43.2867 25.7267 43.1133 25.7267 42.94 25.7C42.74 25.66 42.5733 25.58 42.44 25.46C42.32 25.3533 42.2267 25.2133 42.16 25.04C42.1067 24.88 42.06 24.72 42.02 24.56C41.9933 24.4 41.98 24.26 41.98 24.14C41.98 24.02 41.98 23.96 41.98 23.96V11.78C41.98 11.6333 41.98 11.4667 41.98 11.28C41.98 11.0933 41.9933 10.9067 42.02 10.72C42.0467 10.5333 42.08 10.3667 42.12 10.22C42.1733 10.06 42.2467 9.93333 42.34 9.84C42.4867 9.69333 42.64 9.60667 42.8 9.58C42.96 9.55333 43.1333 9.54 43.32 9.54C43.5467 9.54 43.7533 9.6 43.94 9.72C44.1267 9.84 44.26 10.0067 44.34 10.22C44.46 10.5 44.5267 10.7933 44.54 11.1C44.5533 11.3933 44.5667 11.6933 44.58 12C44.6067 13.0667 44.6133 14.1333 44.6 15.2C44.5867 16.2667 44.58 17.2733 44.58 18.22V23.22C44.58 23.5267 44.56 23.84 44.52 24.16C44.4933 24.4667 44.4267 24.7867 44.32 25.12ZM30.96 20.9C30.7733 20.8867 30.5867 20.8533 30.4 20.8C30.2133 20.7333 30.04 20.6133 29.88 20.44C29.72 20.28 29.64 20.0467 29.64 19.74C29.64 19.46 29.72 19.2267 29.88 19.04C29.9733 18.9333 30.0867 18.8533 30.22 18.8C30.3667 18.7467 30.5067 18.7067 30.64 18.68C30.7733 18.6533 30.8867 18.64 30.98 18.64C31.0867 18.64 31.1467 18.64 31.16 18.64H39.02C39.2867 18.64 39.5667 18.6533 39.86 18.68C40.1533 18.7067 40.4 18.8133 40.6 19C40.72 19.12 40.8 19.2467 40.84 19.38C40.8933 19.5133 40.92 19.66 40.92 19.82C40.92 20.02 40.8733 20.2067 40.78 20.38C40.6867 20.54 40.5467 20.6533 40.36 20.72C40.12 20.8267 39.8733 20.8933 39.62 20.92C39.3667 20.9333 39.1133 20.9467 38.86 20.96C38.4733 20.9733 38.1733 20.9867 37.96 21C37.7467 21.0133 37.5667 21.0267 37.42 21.04C37.2867 21.04 37.1533 21.04 37.02 21.04C36.9 21.04 36.7267 21.04 36.5 21.04L36.48 24.04C36.48 24.4267 36.36 24.76 36.12 25.04C35.88 25.32 35.5733 25.4467 35.2 25.42C35.0533 25.4067 34.9133 25.38 34.78 25.34C34.6467 25.3 34.5267 25.2333 34.42 25.14C34.3133 25.06 34.2267 24.9467 34.16 24.8C34.0933 24.64 34.06 24.4333 34.06 24.18L34 21.02C33.48 21.0067 32.9933 20.9933 32.54 20.98C32.0867 20.9533 31.56 20.9267 30.96 20.9ZM50.5016 18.4C50.2482 18.6267 49.9682 18.86 49.6616 19.1C49.3682 19.34 49.0482 19.5133 48.7016 19.62C48.4616 19.6867 48.2016 19.68 47.9216 19.6C47.6416 19.52 47.4282 19.38 47.2816 19.18C47.1749 19.02 47.1216 18.8667 47.1216 18.72C47.1216 18.5733 47.1482 18.4333 47.2016 18.3C47.2682 18.1533 47.3482 18.0133 47.4416 17.88C47.5349 17.7467 47.6349 17.62 47.7416 17.5C48.1416 17.0333 48.5349 16.5933 48.9216 16.18C49.3216 15.7667 49.7482 15.36 50.2016 14.96C50.3482 14.84 50.5416 14.6667 50.7816 14.44C51.0216 14.2133 51.2549 13.9867 51.4816 13.76C51.7482 13.5067 52.0349 13.2267 52.3416 12.92C52.3149 12.52 52.3082 12.14 52.3216 11.78C52.3349 11.4733 52.3682 11.1733 52.4216 10.88C52.4749 10.5733 52.5749 10.3467 52.7216 10.2C52.8949 10.04 53.1416 9.94 53.4616 9.9C53.7816 9.84667 54.0482 9.85333 54.2616 9.92C54.5682 10.0133 54.7949 10.1733 54.9416 10.4C55.1016 10.6267 55.2016 10.8933 55.2416 11.2C55.2549 11.32 55.2549 11.4667 55.2416 11.64C55.2282 11.8133 55.2216 11.9867 55.2216 12.16C55.2216 12.3333 55.2349 12.5 55.2616 12.66C55.2882 12.82 55.3416 12.9467 55.4216 13.04C55.6616 13.36 55.9416 13.6933 56.2616 14.04C56.5949 14.3867 56.9349 14.74 57.2816 15.1C57.6416 15.46 57.9949 15.8267 58.3416 16.2C58.6882 16.56 59.0149 16.92 59.3216 17.28C59.4682 17.4533 59.6149 17.6533 59.7616 17.88C59.9082 18.0933 60.0082 18.3067 60.0616 18.52C60.1282 18.7333 60.1282 18.94 60.0616 19.14C59.9949 19.34 59.8216 19.5067 59.5416 19.64C59.3416 19.7333 59.1416 19.7733 58.9416 19.76C58.7549 19.7467 58.5682 19.7 58.3816 19.62C58.1949 19.54 58.0216 19.44 57.8616 19.32C57.7016 19.2 57.5549 19.0733 57.4216 18.94L53.8016 15.62L50.5016 18.4ZM59.7216 22.04C59.7616 22.0533 59.8016 22.06 59.8416 22.06C59.8816 22.0467 59.9216 22.04 59.9616 22.04C60.1882 22.0667 60.3949 22.1133 60.5816 22.18C60.7816 22.2333 60.9749 22.34 61.1616 22.5C61.3482 22.6867 61.4416 22.92 61.4416 23.2C61.4416 23.3467 61.4149 23.5067 61.3616 23.68C61.3216 23.84 61.2616 23.9667 61.1816 24.06C61.0749 24.1667 60.9416 24.2467 60.7816 24.3C60.6216 24.3533 60.4682 24.3933 60.3216 24.42C60.1749 24.4333 60.0416 24.44 59.9216 24.44C59.8149 24.44 59.7549 24.44 59.7416 24.44H48.5416C48.4749 24.44 48.4082 24.4467 48.3416 24.46C48.2749 24.46 48.2082 24.46 48.1416 24.46C47.8616 24.4733 47.5616 24.4733 47.2416 24.46C46.9216 24.4333 46.6482 24.3267 46.4216 24.14C46.1416 23.8867 46.0016 23.6 46.0016 23.28C46.0016 23.08 46.0616 22.8733 46.1816 22.66C46.3016 22.4467 46.4616 22.3 46.6616 22.22C46.9282 22.1133 47.2016 22.06 47.4816 22.06C47.7749 22.06 48.0682 22.0533 48.3616 22.04H48.4616C49.7549 22.0133 51.0749 22.0133 52.4216 22.04L52.4016 19.52C52.4016 19.4 52.4282 19.2733 52.4816 19.14C52.5216 19.0333 52.5749 18.92 52.6416 18.8C52.7082 18.68 52.8149 18.5667 52.9616 18.46C53.1349 18.34 53.3349 18.28 53.5616 18.28C53.7882 18.2667 54.0016 18.3067 54.2016 18.4C54.4149 18.48 54.5882 18.6133 54.7216 18.8C54.8682 18.9733 54.9416 19.18 54.9416 19.42L54.9616 22.04C55.2816 22.04 55.5749 22.04 55.8416 22.04C56.1216 22.0267 56.3949 22.02 56.6616 22.02C56.9416 22.02 57.2149 22.0267 57.4816 22.04C57.7616 22.04 58.0549 22.04 58.3616 22.04C58.6016 22.0533 58.8349 22.0533 59.0616 22.04C59.2882 22.0133 59.5082 22.0133 59.7216 22.04Z" fill="black"/>
</svg>
