<svg width="15" height="15" viewBox="0 0 15 15" fill="none" xmlns="http://www.w3.org/2000/svg">
<path d="M7.5 1.875C4.0625 1.875 1.25 4.1125 1.25 6.875C1.26569 7.53918 1.42789 8.1917 1.72501 8.78593C2.02212 9.38016 2.44682 9.90143 2.96875 10.3125C2.96875 10.6875 2.70625 11.6687 1.25 13.125C2.73125 13.0562 4.15 12.5 5.29375 11.5625C6.00625 11.7688 6.75625 11.875 7.5 11.875C10.9375 11.875 13.75 9.6375 13.75 6.875C13.75 4.1125 10.9375 1.875 7.5 1.875ZM7.5 10.625C4.7375 10.625 2.5 8.94375 2.5 6.875C2.5 4.80625 4.7375 3.125 7.5 3.125C10.2625 3.125 12.5 4.80625 12.5 6.875C12.5 8.94375 10.2625 10.625 7.5 10.625Z" fill="#AEAEAE"/>
</svg>
