<svg width="40" height="40" viewBox="0 0 40 40" fill="none" xmlns="http://www.w3.org/2000/svg">
<g clip-path="url(#clip0_21_112)">
<path d="M36.3266 12.5765L16.3266 32.5765C16.1524 32.7513 15.9454 32.89 15.7175 32.9847C15.4896 33.0793 15.2452 33.128 14.9984 33.128C14.7517 33.128 14.5073 33.0793 14.2794 32.9847C14.0515 32.89 13.8445 32.7513 13.6703 32.5765L4.92031 23.8265C4.74589 23.6521 4.60754 23.4451 4.51315 23.2172C4.41876 22.9893 4.37018 22.7451 4.37018 22.4984C4.37018 22.2518 4.41876 22.0075 4.51315 21.7796C4.60754 21.5518 4.74589 21.3447 4.92031 21.1703C5.09472 20.9959 5.30177 20.8575 5.52965 20.7631C5.75753 20.6687 6.00178 20.6202 6.24843 20.6202C6.49509 20.6202 6.73933 20.6687 6.96721 20.7631C7.19509 20.8575 7.40214 20.9959 7.57656 21.1703L15 28.5937L33.6734 9.92342C34.0257 9.57118 34.5034 9.37329 35.0016 9.37329C35.4997 9.37329 35.9774 9.57118 36.3297 9.92342C36.6819 10.2757 36.8798 10.7534 36.8798 11.2515C36.8798 11.7497 36.6819 12.2274 36.3297 12.5797L36.3266 12.5765Z" fill="#CACACA"/>
</g>
<defs>
<clipPath id="clip0_21_112">
<rect width="40" height="40" fill="white"/>
</clipPath>
</defs>
</svg>
