<svg width="91" height="37" viewBox="0 0 91 37" fill="none" xmlns="http://www.w3.org/2000/svg">
<rect width="91" height="37" rx="5" fill="#FF910F"/>
<path d="M31.2 22.96C31.2 22.4 31.3733 21.94 31.72 21.58C32.0667 21.2067 32.5333 20.92 33.12 20.72C33.7067 20.5067 34.3933 20.36 35.18 20.28C35.98 20.2 36.8333 20.16 37.74 20.16C38.6467 20.16 39.4933 20.1867 40.28 20.24C41.08 20.2933 41.7733 20.42 42.36 20.62C42.96 20.8067 43.4333 21.0867 43.78 21.46C44.1267 21.8333 44.3 22.3333 44.3 22.96C44.3 23.5867 44.1267 24.0867 43.78 24.46C43.4333 24.82 42.96 25.1 42.36 25.3C41.7733 25.5 41.08 25.6267 40.28 25.68C39.4933 25.7467 38.6467 25.78 37.74 25.78C36.8333 25.78 35.98 25.7467 35.18 25.68C34.3933 25.6267 33.7067 25.5 33.12 25.3C32.5333 25.1 32.0667 24.82 31.72 24.46C31.3733 24.0867 31.2 23.5867 31.2 22.96ZM33.32 15.68C33.16 15.68 32.9733 15.6733 32.76 15.66C32.5467 15.6467 32.34 15.6133 32.14 15.56C31.9533 15.5067 31.78 15.4267 31.62 15.32C31.4733 15.2133 31.3733 15.0667 31.32 14.88C31.28 14.7333 31.2467 14.62 31.22 14.54C31.2067 14.46 31.1867 14.3867 31.16 14.32C31.1467 14.2533 31.1333 14.18 31.12 14.1C31.12 14.02 31.12 13.9 31.12 13.74V12C31.12 12.0133 31.1133 11.9667 31.1 11.86C31.1 11.7533 31.1067 11.6267 31.12 11.48C31.1333 11.32 31.16 11.1533 31.2 10.98C31.2533 10.7933 31.32 10.6333 31.4 10.5C31.48 10.3667 31.6067 10.26 31.78 10.18C31.9667 10.1 32.1467 10.04 32.32 10C32.5067 9.96 32.6733 9.94 32.82 9.94C32.9667 9.92667 33.06 9.92 33.1 9.92H41.9C42.18 9.92 42.4667 9.92 42.76 9.92C43.0667 9.92 43.3533 9.97333 43.62 10.08C43.8467 10.1733 44 10.3267 44.08 10.54C44.16 10.7533 44.1933 10.98 44.18 11.22C44.1533 11.4467 44.0667 11.64 43.92 11.8C43.7867 11.96 43.6067 12.0733 43.38 12.14C43.1667 12.1933 42.7933 12.22 42.26 12.22H41.82C41.7533 12.22 41.6933 12.2133 41.64 12.2H34.56C34.4933 12.1867 34.3933 12.1867 34.26 12.2C34.14 12.2 34.0467 12.22 33.98 12.26C33.94 12.2733 33.9133 12.3333 33.9 12.44C33.8867 12.5333 33.88 12.6467 33.88 12.78C33.88 12.9 33.88 13.0133 33.88 13.12C33.8933 13.2267 33.9067 13.3 33.92 13.34C33.9733 13.4333 34.0867 13.4867 34.26 13.5C34.4333 13.5 34.5933 13.4933 34.74 13.48C34.9 13.48 35.1067 13.48 35.36 13.48C35.6133 13.48 35.96 13.48 36.4 13.48C36.84 13.48 37.4 13.48 38.08 13.48C38.76 13.48 39.6 13.48 40.6 13.48H42.08C42.4133 13.48 42.7133 13.4867 42.98 13.5C43.26 13.5 43.5133 13.5533 43.74 13.66C44.0067 13.78 44.1867 14.0067 44.28 14.34C44.3467 14.6733 44.28 14.9733 44.08 15.24C43.8667 15.5067 43.6333 15.6467 43.38 15.66C43.14 15.6733 42.8733 15.6867 42.58 15.7C42.4467 15.7 42.18 15.7067 41.78 15.72C41.38 15.72 40.94 15.7267 40.46 15.74C39.9933 15.74 39.54 15.74 39.1 15.74C38.66 15.74 38.3333 15.74 38.12 15.74C37.8933 15.74 37.56 15.74 37.12 15.74C36.68 15.74 36.2133 15.74 35.72 15.74C35.2267 15.7267 34.76 15.72 34.32 15.72C33.88 15.7067 33.5467 15.6933 33.32 15.68ZM43.18 16.9C43.4067 16.9 43.6467 16.9067 43.9 16.92C44.1533 16.9333 44.3867 16.98 44.6 17.06C44.8133 17.1267 44.9867 17.24 45.12 17.4C45.2667 17.5467 45.3533 17.76 45.38 18.04C45.3933 18.1867 45.36 18.32 45.28 18.44C45.2133 18.56 45.1133 18.68 44.98 18.8C44.8733 18.8933 44.74 18.9667 44.58 19.02C44.4333 19.06 44.2733 19.0933 44.1 19.12C43.94 19.1333 43.7733 19.14 43.6 19.14C43.44 19.14 43.2933 19.1333 43.16 19.12C43.1333 19.12 43.1 19.12 43.06 19.12C43.02 19.1067 42.8933 19.1 42.68 19.1C42.4667 19.1 42.14 19.1 41.7 19.1C41.26 19.1 40.6267 19.1 39.8 19.1C38.9867 19.1 37.94 19.1 36.66 19.1C35.3933 19.1 33.8333 19.1 31.98 19.1C31.9667 19.1 31.9067 19.1 31.8 19.1C31.6933 19.1 31.5667 19.0867 31.42 19.06C31.2867 19.0333 31.1467 19 31 18.96C30.8533 18.9067 30.7333 18.8267 30.64 18.72C30.48 18.5467 30.4 18.34 30.4 18.1C30.4 17.9533 30.42 17.8 30.46 17.64C30.5133 17.48 30.58 17.3667 30.66 17.3C30.8333 17.1533 31.0267 17.0533 31.24 17C31.4667 16.9333 31.78 16.9 32.18 16.9H43.18ZM41.66 22.96C41.66 22.7467 41.54 22.5867 41.3 22.48C41.0733 22.36 40.7667 22.2733 40.38 22.22C40.0067 22.1667 39.5867 22.14 39.12 22.14C38.6533 22.1267 38.1933 22.12 37.74 22.12C37.2867 22.12 36.8333 22.1267 36.38 22.14C35.9267 22.14 35.52 22.1667 35.16 22.22C34.8 22.2733 34.5067 22.36 34.28 22.48C34.0667 22.5867 33.96 22.7467 33.96 22.96C33.96 23.1467 34.0667 23.3 34.28 23.42C34.5067 23.5267 34.8 23.6133 35.16 23.68C35.52 23.7333 35.9267 23.7733 36.38 23.8C36.8333 23.8133 37.2867 23.82 37.74 23.82C38.1933 23.82 38.6533 23.8267 39.12 23.84C39.5867 23.84 40.0067 23.82 40.38 23.78C40.7667 23.7267 41.0733 23.64 41.3 23.52C41.54 23.4 41.66 23.2133 41.66 22.96ZM59.2608 17.72C59.4874 17.7333 59.7141 17.7667 59.9408 17.82C60.1808 17.8733 60.3941 17.9733 60.5808 18.12C60.6741 18.1867 60.7408 18.26 60.7808 18.34C60.8341 18.42 60.8608 18.52 60.8608 18.64C60.8608 18.7733 60.8341 18.92 60.7808 19.08C60.7408 19.24 60.6808 19.3533 60.6008 19.42C60.4941 19.5267 60.3541 19.6067 60.1808 19.66C60.0208 19.7 59.8608 19.7333 59.7008 19.76C59.5408 19.7733 59.4008 19.78 59.2808 19.78C59.1741 19.78 59.1141 19.78 59.1008 19.78L48.4408 19.8C48.1341 19.8133 47.8141 19.8133 47.4808 19.8C47.1608 19.7867 46.8874 19.6867 46.6608 19.5C46.3541 19.2733 46.2008 19.0133 46.2008 18.72C46.2008 18.5333 46.2608 18.36 46.3808 18.2C46.5141 18.04 46.6874 17.9267 46.9008 17.86C47.1808 17.7667 47.4674 17.7267 47.7608 17.74C48.0541 17.74 48.3541 17.7333 48.6608 17.72C48.9808 17.7067 49.2541 17.7 49.4808 17.7C49.7208 17.7 49.9474 17.7 50.1608 17.7C50.3874 17.7 50.6208 17.7067 50.8608 17.72C51.1008 17.72 51.3874 17.72 51.7208 17.72V16.64H49.5608C49.2941 16.64 49.0141 16.64 48.7208 16.64C48.4408 16.64 48.1541 16.6333 47.8608 16.62C47.5808 16.5933 47.3408 16.4867 47.1408 16.3C46.9541 16.1 46.8474 15.84 46.8208 15.52C46.7941 15.28 46.7741 14.9867 46.7608 14.64C46.7608 14.2933 46.7608 14.0267 46.7608 13.84C46.7608 13.6933 46.7674 13.4867 46.7808 13.22C46.7941 12.9533 46.8608 12.7467 46.9808 12.6C47.1674 12.3867 47.4141 12.26 47.7208 12.22C48.0274 12.1667 48.3274 12.14 48.6208 12.14H49.3208C49.4541 12.14 49.6808 12.14 50.0008 12.14C50.3208 12.14 50.6941 12.1467 51.1208 12.16C51.5474 12.16 52.0008 12.1667 52.4808 12.18C52.9741 12.18 53.4474 12.18 53.9008 12.18C54.3541 12.18 54.7674 12.18 55.1408 12.18C55.5274 12.18 55.8274 12.1733 56.0408 12.16C56.2808 12.16 56.4674 12.16 56.6008 12.16C56.7341 12.16 56.8541 12.16 56.9608 12.16C57.0674 12.1467 57.1741 12.14 57.2808 12.14C57.3874 12.14 57.5208 12.14 57.6808 12.14C57.6808 12.1133 57.6808 12.06 57.6808 11.98C57.6941 11.8867 57.7008 11.7933 57.7008 11.7C57.7141 11.5933 57.7208 11.5 57.7208 11.42C57.7208 11.34 57.7074 11.3 57.6808 11.3H56.1408C55.9674 11.3 55.6874 11.3 55.3008 11.3C54.9141 11.3 54.4741 11.3067 53.9808 11.32C53.5008 11.32 52.9874 11.32 52.4408 11.32C51.8941 11.32 51.3674 11.32 50.8608 11.32C50.3674 11.32 49.9274 11.32 49.5408 11.32C49.1541 11.32 48.8674 11.3133 48.6808 11.3H48.2008C48.0674 11.3 47.9474 11.3 47.8408 11.3C47.7341 11.3 47.6274 11.2867 47.5208 11.26C47.4008 11.2333 47.2874 11.1933 47.1808 11.14C47.0741 11.0733 46.9874 10.9867 46.9208 10.88C46.8674 10.76 46.8341 10.6333 46.8208 10.5C46.8208 10.3667 46.8208 10.24 46.8208 10.12C46.8208 10 46.8541 9.88667 46.9208 9.78C47.0008 9.67333 47.0874 9.58667 47.1808 9.52C47.2874 9.45333 47.3941 9.41333 47.5008 9.4C47.6074 9.38667 47.7274 9.36667 47.8608 9.34C47.9674 9.31333 48.0741 9.30667 48.1808 9.32C48.2874 9.33333 48.3941 9.33333 48.5008 9.32C48.6208 9.30667 48.7341 9.3 48.8408 9.3C48.9608 9.3 49.0808 9.3 49.2008 9.3C49.6141 9.31333 50.1408 9.32 50.7808 9.32C51.4208 9.30667 52.0408 9.3 52.6408 9.3H58.1008C58.7808 9.3 59.3008 9.41333 59.6608 9.64C60.0208 9.85333 60.2008 10.2133 60.2008 10.72V12.18C60.2008 12.3 60.2008 12.44 60.2008 12.6C60.2141 12.76 60.2074 12.92 60.1808 13.08C60.1674 13.2267 60.1341 13.3667 60.0808 13.5C60.0274 13.6333 59.9408 13.7333 59.8208 13.8C59.6208 13.9067 59.3874 13.9667 59.1208 13.98C58.8674 13.98 58.6274 13.98 58.4008 13.98H49.2208L49.2008 14.78H58.6208C58.7274 14.78 58.8341 14.78 58.9408 14.78C59.0608 14.78 59.1741 14.7867 59.2808 14.8C59.4941 14.8133 59.6808 14.8667 59.8408 14.96C60.0008 15.04 60.1141 15.1933 60.1808 15.42C60.3274 15.94 60.1541 16.3 59.6608 16.5C59.5008 16.5667 59.3341 16.6067 59.1608 16.62C59.0008 16.6333 58.8474 16.64 58.7008 16.64H54.5208C54.5341 16.8267 54.5408 17.0133 54.5408 17.2C54.5541 17.3867 54.5608 17.56 54.5608 17.72C54.9341 17.72 55.3341 17.72 55.7608 17.72C56.1874 17.7067 56.6141 17.7 57.0408 17.7C57.4674 17.7 57.8741 17.7 58.2608 17.7C58.6474 17.7 58.9808 17.7067 59.2608 17.72ZM58.0808 20.78C58.6274 20.78 59.0474 20.8667 59.3408 21.04C59.6474 21.2133 59.8008 21.4533 59.8008 21.76V22.96C59.8008 23.0267 59.8008 23.16 59.8008 23.36C59.8141 23.5467 59.8208 23.7533 59.8208 23.98C59.8208 24.1933 59.8208 24.4 59.8208 24.6C59.8208 24.8 59.8141 24.94 59.8008 25.02C59.7741 25.3 59.6608 25.5267 59.4608 25.7C59.2741 25.8733 59.0274 25.96 58.7208 25.96C58.5741 25.96 58.4341 25.94 58.3008 25.9C58.1141 25.8467 57.9674 25.7667 57.8608 25.66C57.7674 25.5533 57.6941 25.4333 57.6408 25.3C57.6008 25.1667 57.5674 25.0267 57.5408 24.88C57.5274 24.72 57.5208 24.5667 57.5208 24.42C57.5208 24.3667 57.5141 24.2733 57.5008 24.14C57.5008 23.9933 57.4941 23.8467 57.4808 23.7C57.4808 23.5533 57.4741 23.4133 57.4608 23.28C57.4608 23.1467 57.4541 23.0533 57.4408 23C57.4008 22.9867 57.2874 22.9733 57.1008 22.96C56.9274 22.9467 56.5941 22.94 56.1008 22.94C55.8741 22.94 55.6741 22.9467 55.5008 22.96C55.3274 22.96 55.1674 22.96 55.0208 22.96H54.5808H47.9008C47.8874 22.96 47.8341 22.9467 47.7408 22.92C47.6608 22.8933 47.5674 22.8533 47.4608 22.8C47.3541 22.7467 47.2541 22.6733 47.1608 22.58C47.0674 22.4867 47.0141 22.3667 47.0008 22.22C46.9608 21.9667 46.9608 21.7667 47.0008 21.62C47.0408 21.4733 47.1208 21.3267 47.2408 21.18C47.4008 20.9933 47.5741 20.8867 47.7608 20.86C47.9474 20.82 48.0474 20.8 48.0608 20.8L58.0808 20.78Z" fill="white"/>
</svg>
