<svg width="74" height="30" viewBox="0 0 74 30" fill="none" xmlns="http://www.w3.org/2000/svg">
<rect width="74" height="30" rx="10" fill="#FF910F"/>
<path d="M21.462 8.544C21.642 8.544 21.84 8.574 22.056 8.634C22.224 8.694 22.362 8.844 22.47 9.084C22.566 9.396 22.53 9.702 22.362 10.002C22.314 10.062 22.254 10.122 22.182 10.182C22.122 10.23 22.062 10.278 22.002 10.326C21.93 10.35 21.846 10.374 21.75 10.398C21.654 10.422 21.558 10.434 21.462 10.434C21.366 10.458 21.276 10.47 21.192 10.47C21.108 10.47 21 10.458 20.868 10.434H20.292L16.89 10.38C16.65 10.38 16.446 10.356 16.278 10.308C16.11 10.26 15.978 10.2 15.882 10.128C15.786 10.032 15.708 9.924 15.648 9.804C15.6 9.684 15.564 9.54 15.54 9.372C15.54 9.168 15.636 8.97 15.828 8.778C15.924 8.682 16.02 8.622 16.116 8.598C16.224 8.562 16.344 8.544 16.476 8.544H16.746H17.286H17.772C17.904 8.544 17.97 8.526 17.97 8.49C17.97 8.442 17.976 8.406 17.988 8.382C18.012 8.346 18.024 8.316 18.024 8.292V8.094C18.024 7.974 18.042 7.866 18.078 7.77C18.114 7.674 18.144 7.59 18.168 7.518C18.216 7.458 18.276 7.398 18.348 7.338C18.42 7.266 18.504 7.2 18.6 7.14C18.684 7.104 18.78 7.08 18.888 7.068C19.008 7.044 19.122 7.044 19.23 7.068C19.35 7.08 19.452 7.116 19.536 7.176C19.632 7.224 19.704 7.296 19.752 7.392C19.824 7.488 19.86 7.578 19.86 7.662C19.884 7.686 19.896 7.722 19.896 7.77C19.908 7.818 19.914 7.866 19.914 7.914C19.95 7.998 19.95 8.094 19.914 8.202C19.914 8.25 19.914 8.304 19.914 8.364C19.914 8.412 19.926 8.472 19.95 8.544H20.526H20.868H21.228H21.462ZM19.608 11.118C19.86 11.142 20.088 11.196 20.292 11.28C20.508 11.352 20.718 11.46 20.922 11.604C21.09 11.748 21.246 11.91 21.39 12.09C21.546 12.27 21.69 12.48 21.822 12.72C21.99 13.128 22.122 13.644 22.218 14.268C22.278 14.568 22.314 14.862 22.326 15.15C22.35 15.426 22.362 15.714 22.362 16.014C22.362 16.314 22.35 16.608 22.326 16.896C22.302 17.184 22.254 17.46 22.182 17.724C22.134 18.012 22.074 18.282 22.002 18.534C21.942 18.774 21.864 19.002 21.768 19.218C21.636 19.458 21.492 19.668 21.336 19.848C21.192 20.016 21.006 20.166 20.778 20.298C20.358 20.538 19.908 20.682 19.428 20.73C18.948 20.766 18.462 20.688 17.97 20.496C17.514 20.352 17.142 20.07 16.854 19.65C16.614 19.314 16.422 18.96 16.278 18.588C16.134 18.216 16.038 17.814 15.99 17.382C15.966 17.166 15.942 16.95 15.918 16.734C15.894 16.518 15.882 16.308 15.882 16.104C15.882 15.9 15.882 15.708 15.882 15.528C15.894 15.348 15.912 15.156 15.936 14.952C15.936 14.76 15.954 14.568 15.99 14.376C16.026 14.184 16.074 13.986 16.134 13.782C16.35 12.93 16.752 12.264 17.34 11.784C17.928 11.292 18.684 11.07 19.608 11.118ZM19.482 18.732C19.674 18.696 19.848 18.6 20.004 18.444C20.076 18.348 20.142 18.252 20.202 18.156C20.274 18.048 20.334 17.934 20.382 17.814C20.442 17.682 20.484 17.55 20.508 17.418C20.532 17.286 20.556 17.16 20.58 17.04C20.604 16.896 20.616 16.764 20.616 16.644C20.628 16.512 20.634 16.386 20.634 16.266V15.564C20.61 15.432 20.592 15.306 20.58 15.186C20.568 15.066 20.55 14.94 20.526 14.808C20.502 14.688 20.478 14.568 20.454 14.448C20.43 14.328 20.388 14.22 20.328 14.124C20.28 14.028 20.232 13.932 20.184 13.836C20.136 13.74 20.076 13.656 20.004 13.584C19.932 13.536 19.854 13.5 19.77 13.476C19.698 13.452 19.614 13.428 19.518 13.404C19.422 13.38 19.326 13.38 19.23 13.404C19.134 13.416 19.038 13.434 18.942 13.458C18.846 13.482 18.756 13.506 18.672 13.53C18.588 13.554 18.498 13.602 18.402 13.674C18.282 13.77 18.174 13.92 18.078 14.124C17.91 14.628 17.826 15.108 17.826 15.564C17.826 15.84 17.826 16.104 17.826 16.356C17.838 16.608 17.868 16.872 17.916 17.148C17.94 17.268 17.976 17.4 18.024 17.544C18.072 17.676 18.12 17.814 18.168 17.958C18.216 18.078 18.276 18.198 18.348 18.318C18.42 18.426 18.504 18.516 18.6 18.588C18.624 18.612 18.648 18.63 18.672 18.642C18.696 18.654 18.738 18.672 18.798 18.696C18.822 18.696 18.852 18.696 18.888 18.696C18.936 18.696 18.984 18.708 19.032 18.732H19.284H19.482ZM28.59 19.56C28.614 19.728 28.62 19.902 28.608 20.082C28.596 20.25 28.578 20.418 28.554 20.586C28.518 20.85 28.422 21.06 28.266 21.216C28.11 21.384 27.936 21.48 27.744 21.504C27.552 21.54 27.36 21.498 27.168 21.378C26.988 21.258 26.85 21.054 26.754 20.766C26.694 20.562 26.664 20.358 26.664 20.154C26.64 20.058 26.622 19.962 26.61 19.866C26.61 19.758 26.61 19.656 26.61 19.56V15.384H25.44V19.65C25.464 19.806 25.47 19.956 25.458 20.1C25.446 20.244 25.44 20.394 25.44 20.55C25.416 20.694 25.374 20.838 25.314 20.982C25.266 21.114 25.188 21.222 25.08 21.306C24.984 21.402 24.864 21.468 24.72 21.504C24.588 21.552 24.426 21.552 24.234 21.504C24.018 21.42 23.844 21.282 23.712 21.09C23.592 20.91 23.52 20.712 23.496 20.496C23.472 20.34 23.46 20.19 23.46 20.046C23.46 19.902 23.46 19.758 23.46 19.614V9.228V9.138V8.976V8.436C23.46 8.256 23.49 8.064 23.55 7.86C23.658 7.656 23.76 7.5 23.856 7.392C23.952 7.236 24.09 7.134 24.27 7.086C24.426 7.062 24.558 7.068 24.666 7.104C24.786 7.128 24.882 7.188 24.954 7.284C25.026 7.368 25.086 7.458 25.134 7.554C25.182 7.638 25.236 7.74 25.296 7.86C25.32 7.98 25.338 8.106 25.35 8.238C25.374 8.358 25.386 8.49 25.386 8.634C25.41 8.79 25.422 8.94 25.422 9.084C25.434 9.228 25.44 9.378 25.44 9.534V10.38V13.206H26.61V9.138V8.544C26.61 8.448 26.61 8.346 26.61 8.238C26.622 8.118 26.64 8.01 26.664 7.914C26.7 7.698 26.796 7.524 26.952 7.392C27.06 7.248 27.234 7.146 27.474 7.086C27.618 7.086 27.738 7.104 27.834 7.14C27.942 7.176 28.032 7.242 28.104 7.338C28.176 7.398 28.242 7.476 28.302 7.572C28.374 7.668 28.422 7.782 28.446 7.914C28.47 8.034 28.494 8.16 28.518 8.292C28.542 8.412 28.566 8.544 28.59 8.688C28.59 8.82 28.596 8.958 28.608 9.102C28.632 9.234 28.644 9.378 28.644 9.534C28.62 9.654 28.602 9.768 28.59 9.876C28.59 9.984 28.59 10.086 28.59 10.182V19.56ZM42.708 19.902C42.9 19.914 43.068 19.962 43.212 20.046C43.356 20.118 43.458 20.25 43.518 20.442C43.662 20.874 43.506 21.18 43.05 21.36C42.906 21.42 42.762 21.456 42.618 21.468C42.474 21.48 42.336 21.486 42.204 21.486H33.834C33.594 21.486 33.342 21.48 33.078 21.468C32.826 21.468 32.568 21.462 32.304 21.45C32.052 21.438 31.842 21.348 31.674 21.18C31.506 21.012 31.41 20.79 31.386 20.514C31.362 20.31 31.344 20.118 31.332 19.938C31.332 19.746 31.332 19.566 31.332 19.398V19.236C31.32 19.104 31.32 18.948 31.332 18.768C31.344 18.588 31.404 18.438 31.512 18.318C31.68 18.138 31.902 18.024 32.178 17.976C32.466 17.928 32.742 17.904 33.006 17.904H33.366C33.426 17.916 33.474 17.922 33.51 17.922C33.546 17.922 33.582 17.922 33.618 17.922H41.466V17.328H33.438C33.378 17.328 33.312 17.328 33.24 17.328C33.18 17.316 33.114 17.316 33.042 17.328H32.61C32.49 17.328 32.382 17.328 32.286 17.328C32.19 17.328 32.094 17.316 31.998 17.292C31.89 17.268 31.794 17.244 31.71 17.22C31.626 17.196 31.554 17.136 31.494 17.04C31.326 16.788 31.284 16.53 31.368 16.266C31.404 16.17 31.458 16.098 31.53 16.05C31.602 15.99 31.686 15.942 31.782 15.906C31.878 15.87 31.968 15.846 32.052 15.834C32.148 15.81 32.232 15.792 32.304 15.78C32.4 15.768 32.49 15.762 32.574 15.762C32.67 15.75 32.766 15.744 32.862 15.744H33.186C33.246 15.756 33.3 15.762 33.348 15.762C33.396 15.762 33.45 15.762 33.51 15.762H41.646C42.258 15.762 42.726 15.858 43.05 16.05C43.374 16.23 43.536 16.53 43.536 16.95V18.174C43.536 18.342 43.494 18.51 43.41 18.678C43.338 18.834 43.206 18.966 43.014 19.074C42.858 19.17 42.702 19.224 42.546 19.236C42.39 19.236 42.234 19.236 42.078 19.236H33.546V19.902H42.708ZM36.732 7.41C37.224 7.482 37.566 7.644 37.758 7.896C37.95 8.136 38.046 8.52 38.046 9.048C38.046 9.564 38.052 10.08 38.064 10.596C38.088 11.112 38.088 11.628 38.064 12.144C38.052 12.312 38.046 12.492 38.046 12.684C38.046 12.864 38.04 13.05 38.028 13.242C38.028 13.422 38.01 13.602 37.974 13.782C37.938 13.95 37.884 14.106 37.812 14.25C37.716 14.418 37.59 14.55 37.434 14.646C37.278 14.742 37.11 14.802 36.93 14.826C36.762 14.85 36.594 14.832 36.426 14.772C36.258 14.712 36.126 14.598 36.03 14.43C35.922 14.25 35.844 14.058 35.796 13.854C35.748 13.638 35.718 13.416 35.706 13.188C35.706 12.96 35.706 12.732 35.706 12.504C35.718 12.276 35.724 12.06 35.724 11.856C35.724 11.58 35.724 11.298 35.724 11.01C35.724 10.71 35.706 10.374 35.67 10.002C35.646 9.75 35.508 9.606 35.256 9.57C35.004 9.522 34.71 9.498 34.374 9.498H32.304C32.112 9.498 31.956 9.498 31.836 9.498C31.728 9.498 31.626 9.492 31.53 9.48C31.434 9.468 31.32 9.456 31.188 9.444C31.068 9.42 30.9 9.396 30.684 9.372C30.48 9.348 30.33 9.234 30.234 9.03C30.138 8.826 30.09 8.58 30.09 8.292C30.102 8.04 30.192 7.854 30.36 7.734C30.54 7.602 30.732 7.506 30.936 7.446C31.176 7.374 31.362 7.35 31.494 7.374C31.626 7.398 31.812 7.41 32.052 7.41C32.088 7.41 32.106 7.416 32.106 7.428C32.118 7.428 32.118 7.428 32.106 7.428C32.106 7.428 32.13 7.428 32.178 7.428C32.238 7.428 32.412 7.428 32.7 7.428C32.988 7.428 33.444 7.428 34.068 7.428C34.692 7.416 35.58 7.41 36.732 7.41ZM43.14 13.764C43.128 13.896 43.11 14.028 43.086 14.16C43.074 14.292 43.032 14.424 42.96 14.556C42.888 14.688 42.792 14.808 42.672 14.916C42.468 15.036 42.27 15.096 42.078 15.096C41.898 15.096 41.73 15.048 41.574 14.952C41.454 14.88 41.358 14.796 41.286 14.7C41.214 14.592 41.154 14.49 41.106 14.394C41.07 14.286 41.046 14.196 41.034 14.124C41.022 14.052 41.016 14.01 41.016 13.998V13.71C40.812 13.71 40.59 13.692 40.35 13.656C40.122 13.62 39.912 13.56 39.72 13.476C39.54 13.392 39.39 13.278 39.27 13.134C39.162 12.978 39.126 12.78 39.162 12.54C39.198 12.276 39.27 12.078 39.378 11.946C39.498 11.802 39.69 11.724 39.954 11.712C40.11 11.7 40.278 11.694 40.458 11.694C40.638 11.682 40.824 11.676 41.016 11.676V10.398C40.8 10.386 40.566 10.368 40.314 10.344C40.074 10.32 39.852 10.272 39.648 10.2C39.444 10.116 39.282 10.002 39.162 9.858C39.042 9.714 39 9.516 39.036 9.264C39.072 9 39.144 8.802 39.252 8.67C39.372 8.526 39.564 8.448 39.828 8.436C39.972 8.424 40.152 8.418 40.368 8.418C40.584 8.406 40.794 8.4 40.998 8.4C40.998 8.304 40.998 8.172 40.998 8.004C40.998 7.824 41.028 7.668 41.088 7.536C41.208 7.308 41.454 7.164 41.826 7.104C42.03 7.08 42.216 7.092 42.384 7.14C42.552 7.188 42.684 7.272 42.78 7.392C42.948 7.584 43.056 7.764 43.104 7.932C43.116 7.992 43.128 8.094 43.14 8.238C43.152 8.37 43.158 8.52 43.158 8.688C43.158 8.844 43.158 8.994 43.158 9.138C43.158 9.282 43.158 9.384 43.158 9.444V11.694C43.158 12.006 43.158 12.228 43.158 12.36C43.17 12.48 43.176 12.588 43.176 12.684C43.188 12.768 43.188 12.882 43.176 13.026C43.176 13.158 43.164 13.404 43.14 13.764ZM45.639 21.324C45.627 21.324 45.609 21.312 45.585 21.288C45.465 21.192 45.381 21.06 45.333 20.892C45.297 20.724 45.279 20.574 45.279 20.442C45.267 20.226 45.249 20.01 45.225 19.794C45.213 19.578 45.207 19.368 45.207 19.164C45.207 18.852 45.207 18.57 45.207 18.318C45.207 18.066 45.237 17.79 45.297 17.49C45.333 17.298 45.393 17.148 45.477 17.04C45.561 16.92 45.693 16.824 45.873 16.752C46.209 16.62 46.545 16.554 46.881 16.554H55.179C55.407 16.566 55.641 16.584 55.881 16.608C56.121 16.632 56.349 16.692 56.565 16.788C56.805 16.884 56.961 17.022 57.033 17.202C57.117 17.37 57.171 17.574 57.195 17.814C57.207 18.018 57.213 18.252 57.213 18.516C57.225 18.78 57.225 19.05 57.213 19.326C57.201 19.59 57.183 19.854 57.159 20.118C57.135 20.382 57.093 20.622 57.033 20.838C56.997 20.97 56.955 21.084 56.907 21.18C56.859 21.288 56.763 21.366 56.619 21.414C56.487 21.462 56.349 21.492 56.205 21.504C56.073 21.516 55.941 21.522 55.809 21.522L46.611 21.486C46.455 21.474 46.287 21.468 46.107 21.468C45.927 21.468 45.771 21.42 45.639 21.324ZM48.051 13.602C48.063 13.422 48.069 13.236 48.069 13.044C48.069 12.852 48.069 12.666 48.069 12.486C47.997 12.486 47.925 12.486 47.853 12.486C47.781 12.474 47.721 12.468 47.673 12.468C47.409 12.468 47.133 12.462 46.845 12.45C46.557 12.438 46.293 12.39 46.053 12.306C45.861 12.246 45.681 12.15 45.513 12.018C45.357 11.874 45.231 11.7 45.135 11.496C45.027 11.268 44.985 10.998 45.009 10.686C45.009 10.674 45.003 10.596 44.991 10.452C44.991 10.296 44.985 10.134 44.973 9.966C44.961 9.786 44.949 9.624 44.937 9.48C44.937 9.324 44.937 9.228 44.937 9.192C44.925 8.952 44.925 8.7 44.937 8.436C44.949 8.172 45.027 7.92 45.171 7.68C45.243 7.56 45.357 7.47 45.513 7.41C45.669 7.338 45.825 7.284 45.981 7.248C46.137 7.212 46.275 7.194 46.395 7.194C46.527 7.182 46.611 7.176 46.647 7.176H51.813C52.053 7.176 52.281 7.188 52.497 7.212C52.713 7.224 52.935 7.278 53.163 7.374C53.355 7.446 53.505 7.566 53.613 7.734C53.721 7.902 53.769 8.088 53.757 8.292C53.733 8.484 53.661 8.652 53.541 8.796C53.433 8.928 53.277 9.018 53.073 9.066C52.857 9.126 52.533 9.156 52.101 9.156H51.723C51.675 9.156 51.627 9.15 51.579 9.138H48.321C48.165 9.138 48.003 9.144 47.835 9.156C47.679 9.168 47.559 9.192 47.475 9.228C47.283 9.3 47.175 9.36 47.151 9.408C47.139 9.444 47.145 9.552 47.169 9.732L47.187 9.93C47.175 10.038 47.175 10.122 47.187 10.182C47.199 10.23 47.235 10.284 47.295 10.344C47.355 10.428 47.511 10.47 47.763 10.47C47.823 10.47 47.889 10.47 47.961 10.47C48.033 10.458 48.105 10.446 48.177 10.434L51.633 10.416C52.173 10.416 52.641 10.5 53.037 10.668C53.277 10.776 53.433 10.962 53.505 11.226C53.565 11.514 53.511 11.772 53.343 12C53.163 12.216 52.965 12.348 52.749 12.396C52.533 12.432 52.305 12.456 52.065 12.468C51.969 12.48 51.771 12.486 51.471 12.486C51.171 12.486 50.835 12.486 50.463 12.486C50.475 12.594 50.475 12.708 50.463 12.828C50.463 12.936 50.463 13.05 50.463 13.17C50.451 13.254 50.445 13.332 50.445 13.404C50.445 13.476 50.445 13.548 50.445 13.62L51.831 13.602C52.059 13.602 52.281 13.602 52.497 13.602C52.713 13.602 52.923 13.65 53.127 13.746C53.283 13.818 53.403 13.932 53.487 14.088C53.583 14.244 53.631 14.418 53.631 14.61C53.631 14.91 53.523 15.18 53.307 15.42C53.139 15.6 52.929 15.702 52.677 15.726C52.437 15.75 52.209 15.75 51.993 15.726H45.819C45.807 15.726 45.759 15.726 45.675 15.726C45.591 15.726 45.489 15.714 45.369 15.69C45.261 15.666 45.147 15.63 45.027 15.582C44.907 15.522 44.811 15.438 44.739 15.33C44.667 15.258 44.613 15.168 44.577 15.06C44.541 14.94 44.523 14.814 44.523 14.682C44.523 14.418 44.595 14.196 44.739 14.016C44.871 13.86 45.045 13.752 45.261 13.692C45.477 13.62 45.663 13.572 45.819 13.548L48.051 13.602ZM54.945 8.994C54.945 8.862 54.945 8.712 54.945 8.544C54.945 8.376 54.951 8.214 54.963 8.058C54.987 7.89 55.023 7.734 55.071 7.59C55.119 7.446 55.179 7.338 55.251 7.266C55.383 7.146 55.515 7.074 55.647 7.05C55.791 7.014 55.947 6.996 56.115 6.996C56.319 6.996 56.499 7.056 56.655 7.176C56.823 7.284 56.943 7.428 57.015 7.608C57.111 7.86 57.165 8.118 57.177 8.382C57.189 8.646 57.201 8.91 57.213 9.174C57.225 10.086 57.231 10.944 57.231 11.748C57.243 12.552 57.249 13.368 57.249 14.196C57.249 14.448 57.231 14.646 57.195 14.79C57.159 14.922 57.117 15.054 57.069 15.186C57.057 15.222 57.045 15.258 57.033 15.294C57.021 15.33 57.003 15.372 56.979 15.42C56.895 15.588 56.787 15.714 56.655 15.798C56.523 15.882 56.379 15.936 56.223 15.96C56.079 15.972 55.929 15.966 55.773 15.942C55.605 15.894 55.461 15.822 55.341 15.726C55.233 15.63 55.149 15.51 55.089 15.366C55.041 15.21 55.005 15.066 54.981 14.934C54.957 14.79 54.945 14.67 54.945 14.574C54.945 14.466 54.945 14.406 54.945 14.394V8.994ZM47.349 19.272C47.349 19.332 47.349 19.392 47.349 19.452C47.361 19.512 47.385 19.554 47.421 19.578C47.445 19.602 47.481 19.62 47.529 19.632C47.589 19.632 47.649 19.632 47.709 19.632C47.769 19.632 47.841 19.626 47.925 19.614H53.379C53.547 19.626 53.709 19.638 53.865 19.65C53.997 19.662 54.135 19.668 54.279 19.668C54.423 19.668 54.555 19.656 54.675 19.632C54.795 19.62 54.867 19.584 54.891 19.524C54.915 19.464 54.933 19.38 54.945 19.272C54.957 19.176 54.963 19.068 54.963 18.948C54.963 18.816 54.927 18.702 54.855 18.606C54.771 18.51 54.651 18.462 54.495 18.462C54.351 18.45 54.219 18.45 54.099 18.462H49.275C49.011 18.438 48.753 18.432 48.501 18.444C48.249 18.444 47.991 18.45 47.727 18.462C47.631 18.462 47.553 18.468 47.493 18.48C47.445 18.48 47.409 18.534 47.385 18.642C47.361 18.726 47.349 18.81 47.349 18.894C47.349 18.966 47.349 19.038 47.349 19.11C47.361 19.134 47.361 19.158 47.349 19.182C47.349 19.206 47.349 19.236 47.349 19.272Z" fill="#FFFEFE"/>
</svg>
