<svg width="45" height="45" viewBox="0 0 45 45" fill="none" xmlns="http://www.w3.org/2000/svg">
<path fill-rule="evenodd" clip-rule="evenodd" d="M16.8188 26.8425H9.38251C8.77876 26.8425 8.18251 26.6925 7.64813 26.4075C7.10902 26.1187 6.64778 25.7038 6.30376 25.1981C5.95727 24.6861 5.73573 24.1 5.65692 23.4868C5.57812 22.8736 5.64425 22.2505 5.85001 21.6675L10.275 8.16563C10.8169 6.6375 11.175 5.625 13.8094 5.625C17.6944 5.625 21.8269 6.89625 25.3519 7.98C26.2388 8.25188 27.0863 8.5125 27.8831 8.7375H28.0969V27.2288C24.9881 30.2957 22.3145 33.7743 20.1506 37.5675C19.7813 38.2725 19.1831 38.8237 18.4613 39.1237C17.7402 39.4244 16.9351 39.4564 16.1925 39.2137C15.4445 38.9665 14.8073 38.4641 14.3925 37.7944C13.9705 37.1171 13.7925 36.316 13.8881 35.5237L16.8169 26.8425H16.8188ZM37.1663 26.25H31.875V11.25C31.875 10.2554 32.2701 9.30161 32.9734 8.59835C33.6766 7.89509 34.6304 7.5 35.625 7.5C36.6196 7.5 37.5734 7.89509 38.2767 8.59835C38.9799 9.30161 39.375 10.2554 39.375 11.25V24.0431C39.375 25.2619 38.385 26.25 37.1663 26.25Z" fill="#CACACA"/>
</svg>
