<svg width="45" height="45" viewBox="0 0 45 45" fill="none" xmlns="http://www.w3.org/2000/svg">
<path fill-rule="evenodd" clip-rule="evenodd" d="M28.1813 18.1575H35.6156C36.2194 18.1575 36.8156 18.3075 37.35 18.5925C37.8863 18.8794 38.3475 19.2937 38.6944 19.8019C39.0407 20.3139 39.2622 20.9001 39.341 21.5132C39.4198 22.1264 39.3537 22.7495 39.1481 23.3325L34.7231 36.8344C34.1831 38.3606 33.8231 39.375 31.1906 39.375C27.3056 39.375 23.1731 38.1056 19.6463 37.02C18.7613 36.7481 17.9138 36.4875 17.1188 36.2625H16.9031V17.7712C20.0119 14.7043 22.6855 11.2256 24.8494 7.43249C25.2132 6.73217 25.811 6.18151 26.5388 5.87624C27.2598 5.57556 28.0649 5.54362 28.8075 5.78624C29.55 6.02999 30.1875 6.53061 30.6075 7.20561C31.0294 7.88061 31.2075 8.68311 31.1119 9.47624L28.1813 18.1575ZM7.83188 18.75H13.125V33.75C13.125 34.7445 12.7299 35.6984 12.0267 36.4016C11.3234 37.1049 10.3696 37.5 9.375 37.5C8.38044 37.5 7.42661 37.1049 6.72335 36.4016C6.02009 35.6984 5.625 34.7445 5.625 33.75V20.9569C5.625 19.7381 6.615 18.75 7.83188 18.75Z" fill="#CACACA"/>
</svg>
