<svg width="74" height="30" viewBox="0 0 74 30" fill="none" xmlns="http://www.w3.org/2000/svg">
<rect width="74" height="30" rx="10" fill="#D9D9D9"/>
<path d="M22.056 7.536C22.44 7.536 22.752 7.602 22.992 7.734C23.232 7.866 23.418 8.04 23.55 8.256C23.682 8.472 23.772 8.724 23.82 9.012C23.88 9.288 23.91 9.57 23.91 9.858V18.624C23.91 18.636 23.904 18.708 23.892 18.84C23.892 18.96 23.88 19.104 23.856 19.272C23.832 19.44 23.796 19.614 23.748 19.794C23.712 19.974 23.658 20.124 23.586 20.244C23.49 20.388 23.346 20.502 23.154 20.586C22.974 20.67 22.788 20.736 22.596 20.784C22.416 20.82 22.248 20.844 22.092 20.856C21.936 20.856 21.852 20.856 21.84 20.856H18.402C18.294 20.856 18.126 20.85 17.898 20.838C17.682 20.814 17.454 20.772 17.214 20.712C16.974 20.64 16.746 20.538 16.53 20.406C16.326 20.274 16.176 20.094 16.08 19.866C15.912 19.47 15.816 19.056 15.792 18.624C15.78 18.192 15.78 17.766 15.792 17.346V10.866C15.792 10.83 15.78 10.71 15.756 10.506C15.744 10.29 15.738 10.05 15.738 9.786C15.738 9.51 15.756 9.234 15.792 8.958C15.828 8.67 15.894 8.43 15.99 8.238C16.11 7.998 16.272 7.824 16.476 7.716C16.68 7.608 16.902 7.542 17.142 7.518C17.394 7.482 17.646 7.476 17.898 7.5C18.162 7.512 18.402 7.518 18.618 7.518H20.13C20.214 7.542 20.358 7.554 20.562 7.554C20.766 7.542 20.922 7.536 21.03 7.536H22.056ZM28.248 20.01C28.224 20.154 28.206 20.298 28.194 20.442C28.182 20.574 28.152 20.712 28.104 20.856C28.08 20.904 28.062 20.946 28.05 20.982C28.038 21.018 28.02 21.06 27.996 21.108C27.912 21.276 27.804 21.408 27.672 21.504C27.396 21.672 27.09 21.714 26.754 21.63C26.562 21.594 26.406 21.522 26.286 21.414C26.178 21.318 26.094 21.192 26.034 21.036C25.986 20.892 25.944 20.748 25.908 20.604C25.884 20.46 25.872 20.334 25.872 20.226C25.872 20.118 25.872 20.058 25.872 20.046V9.138C25.872 8.994 25.872 8.838 25.872 8.67C25.872 8.502 25.884 8.334 25.908 8.166C25.932 7.998 25.968 7.842 26.016 7.698C26.064 7.554 26.13 7.44 26.214 7.356C26.346 7.224 26.484 7.146 26.628 7.122C26.772 7.086 26.928 7.068 27.096 7.068C27.3 7.068 27.486 7.128 27.654 7.248C27.834 7.356 27.96 7.512 28.032 7.716C28.14 7.968 28.2 8.232 28.212 8.508C28.224 8.784 28.236 9.06 28.248 9.336V9.426C28.272 10.35 28.278 11.298 28.266 12.27C28.254 13.242 28.248 14.16 28.248 15.024V19.362C28.248 19.47 28.248 19.578 28.248 19.686C28.26 19.794 28.26 19.902 28.248 20.01ZM18.096 17.94C18.108 18.036 18.144 18.162 18.204 18.318C18.276 18.474 18.378 18.564 18.51 18.588C18.594 18.612 18.648 18.624 18.672 18.624C18.708 18.624 18.78 18.624 18.888 18.624C18.936 18.624 19.032 18.624 19.176 18.624C19.32 18.624 19.47 18.624 19.626 18.624C19.782 18.624 19.926 18.624 20.058 18.624C20.202 18.612 20.304 18.606 20.364 18.606C20.508 18.594 20.652 18.582 20.796 18.57C20.94 18.546 21.072 18.498 21.192 18.426C21.324 18.354 21.396 18.228 21.408 18.048C21.42 17.868 21.42 17.694 21.408 17.526V17.328C21.408 17.124 21.408 16.89 21.408 16.626C21.408 16.362 21.408 16.014 21.408 15.582C21.408 15.15 21.408 14.61 21.408 13.962C21.408 13.302 21.408 12.486 21.408 11.514C21.408 11.358 21.402 11.208 21.39 11.064C21.378 10.932 21.366 10.8 21.354 10.668C21.354 10.536 21.348 10.422 21.336 10.326C21.312 10.098 21.228 9.96 21.084 9.912C20.952 9.852 20.85 9.822 20.778 9.822H20.76L18.87 9.786C18.582 9.786 18.402 9.828 18.33 9.912C18.27 9.984 18.216 10.104 18.168 10.272C18.144 10.392 18.12 10.53 18.096 10.686C18.084 10.842 18.084 10.998 18.096 11.154V17.94ZM35.2784 8.544C35.4584 8.544 35.6564 8.574 35.8724 8.634C36.0404 8.694 36.1784 8.844 36.2864 9.084C36.3824 9.396 36.3464 9.702 36.1784 10.002C36.1304 10.062 36.0704 10.122 35.9984 10.182C35.9384 10.23 35.8784 10.278 35.8184 10.326C35.7464 10.35 35.6624 10.374 35.5664 10.398C35.4704 10.422 35.3744 10.434 35.2784 10.434C35.1824 10.458 35.0924 10.47 35.0084 10.47C34.9244 10.47 34.8164 10.458 34.6844 10.434H34.1084L30.7064 10.38C30.4664 10.38 30.2624 10.356 30.0944 10.308C29.9264 10.26 29.7944 10.2 29.6984 10.128C29.6024 10.032 29.5244 9.924 29.4644 9.804C29.4164 9.684 29.3804 9.54 29.3564 9.372C29.3564 9.168 29.4524 8.97 29.6444 8.778C29.7404 8.682 29.8364 8.622 29.9324 8.598C30.0404 8.562 30.1604 8.544 30.2924 8.544H30.5624H31.1024H31.5884C31.7204 8.544 31.7864 8.526 31.7864 8.49C31.7864 8.442 31.7924 8.406 31.8044 8.382C31.8284 8.346 31.8404 8.316 31.8404 8.292V8.094C31.8404 7.974 31.8584 7.866 31.8944 7.77C31.9304 7.674 31.9604 7.59 31.9844 7.518C32.0324 7.458 32.0924 7.398 32.1644 7.338C32.2364 7.266 32.3204 7.2 32.4164 7.14C32.5004 7.104 32.5964 7.08 32.7044 7.068C32.8244 7.044 32.9384 7.044 33.0464 7.068C33.1664 7.08 33.2684 7.116 33.3524 7.176C33.4484 7.224 33.5204 7.296 33.5684 7.392C33.6404 7.488 33.6764 7.578 33.6764 7.662C33.7004 7.686 33.7124 7.722 33.7124 7.77C33.7244 7.818 33.7304 7.866 33.7304 7.914C33.7664 7.998 33.7664 8.094 33.7304 8.202C33.7304 8.25 33.7304 8.304 33.7304 8.364C33.7304 8.412 33.7424 8.472 33.7664 8.544H34.3424H34.6844H35.0444H35.2784ZM33.4244 11.118C33.6764 11.142 33.9044 11.196 34.1084 11.28C34.3244 11.352 34.5344 11.46 34.7384 11.604C34.9064 11.748 35.0624 11.91 35.2064 12.09C35.3624 12.27 35.5064 12.48 35.6384 12.72C35.8064 13.128 35.9384 13.644 36.0344 14.268C36.0944 14.568 36.1304 14.862 36.1424 15.15C36.1664 15.426 36.1784 15.714 36.1784 16.014C36.1784 16.314 36.1664 16.608 36.1424 16.896C36.1184 17.184 36.0704 17.46 35.9984 17.724C35.9504 18.012 35.8904 18.282 35.8184 18.534C35.7584 18.774 35.6804 19.002 35.5844 19.218C35.4524 19.458 35.3084 19.668 35.1524 19.848C35.0084 20.016 34.8224 20.166 34.5944 20.298C34.1744 20.538 33.7244 20.682 33.2444 20.73C32.7644 20.766 32.2784 20.688 31.7864 20.496C31.3304 20.352 30.9584 20.07 30.6704 19.65C30.4304 19.314 30.2384 18.96 30.0944 18.588C29.9504 18.216 29.8544 17.814 29.8064 17.382C29.7824 17.166 29.7584 16.95 29.7344 16.734C29.7104 16.518 29.6984 16.308 29.6984 16.104C29.6984 15.9 29.6984 15.708 29.6984 15.528C29.7104 15.348 29.7284 15.156 29.7524 14.952C29.7524 14.76 29.7704 14.568 29.8064 14.376C29.8424 14.184 29.8904 13.986 29.9504 13.782C30.1664 12.93 30.5684 12.264 31.1564 11.784C31.7444 11.292 32.5004 11.07 33.4244 11.118ZM33.2984 18.732C33.4904 18.696 33.6644 18.6 33.8204 18.444C33.8924 18.348 33.9584 18.252 34.0184 18.156C34.0904 18.048 34.1504 17.934 34.1984 17.814C34.2584 17.682 34.3004 17.55 34.3244 17.418C34.3484 17.286 34.3724 17.16 34.3964 17.04C34.4204 16.896 34.4324 16.764 34.4324 16.644C34.4444 16.512 34.4504 16.386 34.4504 16.266V15.564C34.4264 15.432 34.4084 15.306 34.3964 15.186C34.3844 15.066 34.3664 14.94 34.3424 14.808C34.3184 14.688 34.2944 14.568 34.2704 14.448C34.2464 14.328 34.2044 14.22 34.1444 14.124C34.0964 14.028 34.0484 13.932 34.0004 13.836C33.9524 13.74 33.8924 13.656 33.8204 13.584C33.7484 13.536 33.6704 13.5 33.5864 13.476C33.5144 13.452 33.4304 13.428 33.3344 13.404C33.2384 13.38 33.1424 13.38 33.0464 13.404C32.9504 13.416 32.8544 13.434 32.7584 13.458C32.6624 13.482 32.5724 13.506 32.4884 13.53C32.4044 13.554 32.3144 13.602 32.2184 13.674C32.0984 13.77 31.9904 13.92 31.8944 14.124C31.7264 14.628 31.6424 15.108 31.6424 15.564C31.6424 15.84 31.6424 16.104 31.6424 16.356C31.6544 16.608 31.6844 16.872 31.7324 17.148C31.7564 17.268 31.7924 17.4 31.8404 17.544C31.8884 17.676 31.9364 17.814 31.9844 17.958C32.0324 18.078 32.0924 18.198 32.1644 18.318C32.2364 18.426 32.3204 18.516 32.4164 18.588C32.4404 18.612 32.4644 18.63 32.4884 18.642C32.5124 18.654 32.5544 18.672 32.6144 18.696C32.6384 18.696 32.6684 18.696 32.7044 18.696C32.7524 18.696 32.8004 18.708 32.8484 18.732H33.1004H33.2984ZM42.4064 19.56C42.4304 19.728 42.4364 19.902 42.4244 20.082C42.4124 20.25 42.3944 20.418 42.3704 20.586C42.3344 20.85 42.2384 21.06 42.0824 21.216C41.9264 21.384 41.7524 21.48 41.5604 21.504C41.3684 21.54 41.1764 21.498 40.9844 21.378C40.8044 21.258 40.6664 21.054 40.5704 20.766C40.5104 20.562 40.4804 20.358 40.4804 20.154C40.4564 20.058 40.4384 19.962 40.4264 19.866C40.4264 19.758 40.4264 19.656 40.4264 19.56V15.384H39.2564V19.65C39.2804 19.806 39.2864 19.956 39.2744 20.1C39.2624 20.244 39.2564 20.394 39.2564 20.55C39.2324 20.694 39.1904 20.838 39.1304 20.982C39.0824 21.114 39.0044 21.222 38.8964 21.306C38.8004 21.402 38.6804 21.468 38.5364 21.504C38.4044 21.552 38.2424 21.552 38.0504 21.504C37.8344 21.42 37.6604 21.282 37.5284 21.09C37.4084 20.91 37.3364 20.712 37.3124 20.496C37.2884 20.34 37.2764 20.19 37.2764 20.046C37.2764 19.902 37.2764 19.758 37.2764 19.614V9.228V9.138V8.976V8.436C37.2764 8.256 37.3064 8.064 37.3664 7.86C37.4744 7.656 37.5764 7.5 37.6724 7.392C37.7684 7.236 37.9064 7.134 38.0864 7.086C38.2424 7.062 38.3744 7.068 38.4824 7.104C38.6024 7.128 38.6984 7.188 38.7704 7.284C38.8424 7.368 38.9024 7.458 38.9504 7.554C38.9984 7.638 39.0524 7.74 39.1124 7.86C39.1364 7.98 39.1544 8.106 39.1664 8.238C39.1904 8.358 39.2024 8.49 39.2024 8.634C39.2264 8.79 39.2384 8.94 39.2384 9.084C39.2504 9.228 39.2564 9.378 39.2564 9.534V10.38V13.206H40.4264V9.138V8.544C40.4264 8.448 40.4264 8.346 40.4264 8.238C40.4384 8.118 40.4564 8.01 40.4804 7.914C40.5164 7.698 40.6124 7.524 40.7684 7.392C40.8764 7.248 41.0504 7.146 41.2904 7.086C41.4344 7.086 41.5544 7.104 41.6504 7.14C41.7584 7.176 41.8484 7.242 41.9204 7.338C41.9924 7.398 42.0584 7.476 42.1184 7.572C42.1904 7.668 42.2384 7.782 42.2624 7.914C42.2864 8.034 42.3104 8.16 42.3344 8.292C42.3584 8.412 42.3824 8.544 42.4064 8.688C42.4064 8.82 42.4124 8.958 42.4244 9.102C42.4484 9.234 42.4604 9.378 42.4604 9.534C42.4364 9.654 42.4184 9.768 42.4064 9.876C42.4064 9.984 42.4064 10.086 42.4064 10.182V19.56ZM56.5245 19.902C56.7165 19.914 56.8845 19.962 57.0285 20.046C57.1725 20.118 57.2745 20.25 57.3345 20.442C57.4785 20.874 57.3225 21.18 56.8665 21.36C56.7225 21.42 56.5785 21.456 56.4345 21.468C56.2905 21.48 56.1525 21.486 56.0205 21.486H47.6505C47.4105 21.486 47.1585 21.48 46.8945 21.468C46.6425 21.468 46.3845 21.462 46.1205 21.45C45.8685 21.438 45.6585 21.348 45.4905 21.18C45.3225 21.012 45.2265 20.79 45.2025 20.514C45.1785 20.31 45.1605 20.118 45.1485 19.938C45.1485 19.746 45.1485 19.566 45.1485 19.398V19.236C45.1365 19.104 45.1365 18.948 45.1485 18.768C45.1605 18.588 45.2205 18.438 45.3285 18.318C45.4965 18.138 45.7185 18.024 45.9945 17.976C46.2825 17.928 46.5585 17.904 46.8225 17.904H47.1825C47.2425 17.916 47.2905 17.922 47.3265 17.922C47.3625 17.922 47.3985 17.922 47.4345 17.922H55.2825V17.328H47.2545C47.1945 17.328 47.1285 17.328 47.0565 17.328C46.9965 17.316 46.9305 17.316 46.8585 17.328H46.4265C46.3065 17.328 46.1985 17.328 46.1025 17.328C46.0065 17.328 45.9105 17.316 45.8145 17.292C45.7065 17.268 45.6105 17.244 45.5265 17.22C45.4425 17.196 45.3705 17.136 45.3105 17.04C45.1425 16.788 45.1005 16.53 45.1845 16.266C45.2205 16.17 45.2745 16.098 45.3465 16.05C45.4185 15.99 45.5025 15.942 45.5985 15.906C45.6945 15.87 45.7845 15.846 45.8685 15.834C45.9645 15.81 46.0485 15.792 46.1205 15.78C46.2165 15.768 46.3065 15.762 46.3905 15.762C46.4865 15.75 46.5825 15.744 46.6785 15.744H47.0025C47.0625 15.756 47.1165 15.762 47.1645 15.762C47.2125 15.762 47.2665 15.762 47.3265 15.762H55.4625C56.0745 15.762 56.5425 15.858 56.8665 16.05C57.1905 16.23 57.3525 16.53 57.3525 16.95V18.174C57.3525 18.342 57.3105 18.51 57.2265 18.678C57.1545 18.834 57.0225 18.966 56.8305 19.074C56.6745 19.17 56.5185 19.224 56.3625 19.236C56.2065 19.236 56.0505 19.236 55.8945 19.236H47.3625V19.902H56.5245ZM50.5485 7.41C51.0405 7.482 51.3825 7.644 51.5745 7.896C51.7665 8.136 51.8625 8.52 51.8625 9.048C51.8625 9.564 51.8685 10.08 51.8805 10.596C51.9045 11.112 51.9045 11.628 51.8805 12.144C51.8685 12.312 51.8625 12.492 51.8625 12.684C51.8625 12.864 51.8565 13.05 51.8445 13.242C51.8445 13.422 51.8265 13.602 51.7905 13.782C51.7545 13.95 51.7005 14.106 51.6285 14.25C51.5325 14.418 51.4065 14.55 51.2505 14.646C51.0945 14.742 50.9265 14.802 50.7465 14.826C50.5785 14.85 50.4105 14.832 50.2425 14.772C50.0745 14.712 49.9425 14.598 49.8465 14.43C49.7385 14.25 49.6605 14.058 49.6125 13.854C49.5645 13.638 49.5345 13.416 49.5225 13.188C49.5225 12.96 49.5225 12.732 49.5225 12.504C49.5345 12.276 49.5405 12.06 49.5405 11.856C49.5405 11.58 49.5405 11.298 49.5405 11.01C49.5405 10.71 49.5225 10.374 49.4865 10.002C49.4625 9.75 49.3245 9.606 49.0725 9.57C48.8205 9.522 48.5265 9.498 48.1905 9.498H46.1205C45.9285 9.498 45.7725 9.498 45.6525 9.498C45.5445 9.498 45.4425 9.492 45.3465 9.48C45.2505 9.468 45.1365 9.456 45.0045 9.444C44.8845 9.42 44.7165 9.396 44.5005 9.372C44.2965 9.348 44.1465 9.234 44.0505 9.03C43.9545 8.826 43.9065 8.58 43.9065 8.292C43.9185 8.04 44.0085 7.854 44.1765 7.734C44.3565 7.602 44.5485 7.506 44.7525 7.446C44.9925 7.374 45.1785 7.35 45.3105 7.374C45.4425 7.398 45.6285 7.41 45.8685 7.41C45.9045 7.41 45.9225 7.416 45.9225 7.428C45.9345 7.428 45.9345 7.428 45.9225 7.428C45.9225 7.428 45.9465 7.428 45.9945 7.428C46.0545 7.428 46.2285 7.428 46.5165 7.428C46.8045 7.428 47.2605 7.428 47.8845 7.428C48.5085 7.416 49.3965 7.41 50.5485 7.41ZM56.9565 13.764C56.9445 13.896 56.9265 14.028 56.9025 14.16C56.8905 14.292 56.8485 14.424 56.7765 14.556C56.7045 14.688 56.6085 14.808 56.4885 14.916C56.2845 15.036 56.0865 15.096 55.8945 15.096C55.7145 15.096 55.5465 15.048 55.3905 14.952C55.2705 14.88 55.1745 14.796 55.1025 14.7C55.0305 14.592 54.9705 14.49 54.9225 14.394C54.8865 14.286 54.8625 14.196 54.8505 14.124C54.8385 14.052 54.8325 14.01 54.8325 13.998V13.71C54.6285 13.71 54.4065 13.692 54.1665 13.656C53.9385 13.62 53.7285 13.56 53.5365 13.476C53.3565 13.392 53.2065 13.278 53.0865 13.134C52.9785 12.978 52.9425 12.78 52.9785 12.54C53.0145 12.276 53.0865 12.078 53.1945 11.946C53.3145 11.802 53.5065 11.724 53.7705 11.712C53.9265 11.7 54.0945 11.694 54.2745 11.694C54.4545 11.682 54.6405 11.676 54.8325 11.676V10.398C54.6165 10.386 54.3825 10.368 54.1305 10.344C53.8905 10.32 53.6685 10.272 53.4645 10.2C53.2605 10.116 53.0985 10.002 52.9785 9.858C52.8585 9.714 52.8165 9.516 52.8525 9.264C52.8885 9 52.9605 8.802 53.0685 8.67C53.1885 8.526 53.3805 8.448 53.6445 8.436C53.7885 8.424 53.9685 8.418 54.1845 8.418C54.4005 8.406 54.6105 8.4 54.8145 8.4C54.8145 8.304 54.8145 8.172 54.8145 8.004C54.8145 7.824 54.8445 7.668 54.9045 7.536C55.0245 7.308 55.2705 7.164 55.6425 7.104C55.8465 7.08 56.0325 7.092 56.2005 7.14C56.3685 7.188 56.5005 7.272 56.5965 7.392C56.7645 7.584 56.8725 7.764 56.9205 7.932C56.9325 7.992 56.9445 8.094 56.9565 8.238C56.9685 8.37 56.9745 8.52 56.9745 8.688C56.9745 8.844 56.9745 8.994 56.9745 9.138C56.9745 9.282 56.9745 9.384 56.9745 9.444V11.694C56.9745 12.006 56.9745 12.228 56.9745 12.36C56.9865 12.48 56.9925 12.588 56.9925 12.684C57.0045 12.768 57.0045 12.882 56.9925 13.026C56.9925 13.158 56.9805 13.404 56.9565 13.764Z" fill="#FFFEFE"/>
</svg>
