<svg width="91" height="37" viewBox="0 0 91 37" fill="none" xmlns="http://www.w3.org/2000/svg">
<rect width="91" height="37" rx="5" fill="#D9D9D9"/>
<path d="M23.4 15.48H23.76H24.3H28.32H29.46H30.86C31.1267 15.4533 31.3667 15.44 31.58 15.44C31.7933 15.44 32.02 15.44 32.26 15.44C32.26 15.1733 32.2667 14.9 32.28 14.62C32.3067 14.34 32.32 14.0667 32.32 13.8V13.32C32.2933 13.2533 32.2733 13.1933 32.26 13.14C32.26 13.0867 32.2467 13.04 32.22 13C32.1533 12.9467 32.0933 12.9 32.04 12.86C31.9867 12.8067 31.9133 12.76 31.82 12.72C31.7533 12.72 31.6733 12.7133 31.58 12.7C31.5 12.6867 31.4267 12.68 31.36 12.68H30.82H30.36H29.68C29.4133 12.68 29.18 12.68 28.98 12.68C28.78 12.6667 28.5867 12.66 28.4 12.66C28.2267 12.66 28.04 12.66 27.84 12.66C27.6533 12.66 27.4267 12.6667 27.16 12.68C25.9867 12.72 24.8333 12.72 23.7 12.68C23.5667 12.6533 23.4467 12.64 23.34 12.64C23.2333 12.6267 23.1267 12.6067 23.02 12.58C22.78 12.5133 22.5933 12.3867 22.46 12.2C22.34 12 22.2667 11.7867 22.24 11.56C22.2267 11.32 22.2733 11.0867 22.38 10.86C22.4867 10.6333 22.66 10.4533 22.9 10.32C23.0333 10.2133 23.1867 10.1467 23.36 10.12C23.5333 10.0933 23.7067 10.0667 23.88 10.04C24.0667 10.04 24.24 10.0333 24.4 10.02C24.5733 10.0067 24.7533 10 24.94 10H27.74H28.64C28.76 10.0133 28.8533 10.02 28.92 10.02C28.9867 10.02 29.0467 10.02 29.1 10.02C29.1667 10.02 29.2267 10.02 29.28 10.02C29.3333 10.0067 29.4067 10 29.5 10C30.1267 10 30.7467 10.0067 31.36 10.02C31.9867 10.02 32.6067 10.0467 33.22 10.1C33.7267 10.1533 34.1 10.28 34.34 10.48C34.5933 10.68 34.76 10.9267 34.84 11.22C34.92 11.5133 34.9533 11.84 34.94 12.2C34.9267 12.5467 34.9133 12.9 34.9 13.26C34.9 13.6067 34.8867 13.8867 34.86 14.1C34.8333 14.3 34.8 14.5467 34.76 14.84C34.76 14.9067 34.76 15.0067 34.76 15.14C34.76 15.2733 34.7467 15.3733 34.72 15.44C34.76 15.4533 34.84 15.4667 34.96 15.48C35.08 15.48 35.2067 15.4867 35.34 15.5C35.4867 15.5133 35.62 15.5267 35.74 15.54C35.86 15.5533 35.94 15.5667 35.98 15.58C36.1933 15.6733 36.34 15.8 36.42 15.96C36.5133 16.12 36.56 16.2933 36.56 16.48C36.56 16.84 36.4667 17.12 36.28 17.32C36.0933 17.5067 35.8467 17.6333 35.54 17.7H34.44H23.02H22.8C22.7333 17.7 22.6733 17.7 22.62 17.7C22.5667 17.6867 22.5067 17.66 22.44 17.62C22.3733 17.62 22.3 17.6133 22.22 17.6C22.1533 17.5733 22.0733 17.5467 21.98 17.52C21.9 17.4933 21.8333 17.4533 21.78 17.4C21.7267 17.3467 21.6733 17.2933 21.62 17.24C21.5267 17.2 21.4667 17.12 21.44 17C21.4133 16.88 21.4 16.7533 21.4 16.62C21.4 16.4733 21.4133 16.34 21.44 16.22C21.48 16.0867 21.56 15.98 21.68 15.9C21.7467 15.8333 21.82 15.7733 21.9 15.72C21.9933 15.6533 22.1 15.62 22.22 15.62C22.2867 15.5933 22.3667 15.5733 22.46 15.56C22.5667 15.5333 22.6667 15.52 22.76 15.52H22.9L22.92 15.5C22.9333 15.5 22.9467 15.5 22.96 15.5C22.9733 15.4867 22.9933 15.48 23.02 15.48H23.4ZM34.44 23.98C34.56 23.98 34.6733 23.9933 34.78 24.02C34.8867 24.0467 34.9733 24.0933 35.04 24.16C35.1867 24.1867 35.3 24.32 35.38 24.56C35.54 25.04 35.36 25.3867 34.84 25.6C34.6667 25.6667 34.52 25.7 34.4 25.7H33.9H25.14H24.28H23.42C23.2733 25.6733 23.14 25.64 23.02 25.6C22.9 25.56 22.8067 25.4867 22.74 25.38C22.5667 25.2067 22.46 24.9533 22.42 24.62L22.36 23.22V22.76C22.36 22.64 22.3733 22.5267 22.4 22.42C22.44 22.3 22.4933 22.2133 22.56 22.16C22.6533 22.0533 22.76 21.9733 22.88 21.92C23.0133 21.8533 23.16 21.8 23.32 21.76C23.4667 21.7333 23.6067 21.7133 23.74 21.7C23.8867 21.6733 24.0333 21.66 24.18 21.66H25.14H26.9C27.26 21.6867 27.64 21.7067 28.04 21.72C28.44 21.72 28.9133 21.72 29.46 21.72H33.12V20.9H32.08H27.3H24.94C24.7533 20.9 24.5533 20.9133 24.34 20.94C24.1267 20.9533 23.92 20.96 23.72 20.96C23.52 20.9467 23.3267 20.9133 23.14 20.86C22.9533 20.8067 22.7867 20.7133 22.64 20.58C22.52 20.4867 22.4333 20.3733 22.38 20.24C22.3267 20.0933 22.3067 19.9533 22.32 19.82C22.3467 19.6733 22.4 19.5467 22.48 19.44C22.56 19.32 22.6733 19.2333 22.82 19.18C23.02 19.1133 23.22 19.0733 23.42 19.06C23.6333 19.0467 23.8533 19.04 24.08 19.04H24.68H25.54H26.66H28.3H30.42H33.26C34.0067 19.04 34.5333 19.1467 34.84 19.36C35.0267 19.4533 35.16 19.5867 35.24 19.76C35.3333 19.92 35.38 20.1067 35.38 20.32V21.98C35.38 22.0733 35.3733 22.18 35.36 22.3C35.36 22.42 35.3267 22.5267 35.26 22.62C35.1533 22.8067 35.0133 22.96 34.84 23.08C34.5867 23.1733 34.4067 23.22 34.3 23.22H33.76H24.82V23.98H34.44ZM46.418 12.14C46.418 12.0867 46.4246 11.9933 46.438 11.86C46.4513 11.7267 46.4646 11.5933 46.478 11.46C46.4913 11.3133 46.5046 11.18 46.518 11.06C46.5446 10.94 46.5713 10.8533 46.598 10.8C46.6246 10.7333 46.658 10.66 46.698 10.58C46.7513 10.4867 46.8113 10.4067 46.878 10.34C46.9446 10.2467 47.0513 10.18 47.198 10.14C47.3446 10.0867 47.4913 10.0467 47.638 10.02H47.678C47.8113 9.99333 47.9246 9.98667 48.018 10C48.1113 10 48.218 10.0133 48.338 10.04C48.4713 10.08 48.578 10.1333 48.658 10.2C48.7246 10.24 48.8046 10.3 48.898 10.38C49.0046 10.46 49.0846 10.5533 49.138 10.66C49.2713 10.9 49.3513 11.18 49.378 11.5V12.16C49.3913 12.48 49.3913 12.78 49.378 13.06C49.378 13.34 49.3913 13.6133 49.418 13.88C49.4446 14.1333 49.498 14.3933 49.578 14.66C49.658 14.9133 49.778 15.1933 49.938 15.5C50.0446 15.6867 50.1446 15.86 50.238 16.02C50.3446 16.18 50.4446 16.34 50.538 16.5C50.6446 16.6467 50.7446 16.8 50.838 16.96C50.9446 17.12 51.0513 17.3 51.158 17.5C51.198 17.5667 51.238 17.64 51.278 17.72C51.3313 17.8 51.378 17.88 51.418 17.96C51.4846 18.0933 51.538 18.24 51.578 18.4C51.6313 18.56 51.658 18.72 51.658 18.88C51.658 19.04 51.6246 19.1933 51.558 19.34C51.4913 19.4733 51.378 19.5867 51.218 19.68C51.138 19.72 51.038 19.7667 50.918 19.82C50.798 19.8733 50.6646 19.9067 50.518 19.92C50.3713 19.9333 50.2246 19.92 50.078 19.88C49.9313 19.8267 49.798 19.7267 49.678 19.58C49.478 19.3667 49.298 19.1667 49.138 18.98C48.9913 18.7933 48.8446 18.6067 48.698 18.42C48.5513 18.22 48.4046 18.0133 48.258 17.8C48.1113 17.5733 47.938 17.32 47.738 17.04C47.5113 17.3467 47.278 17.6533 47.038 17.96C46.8113 18.2667 46.5713 18.5733 46.318 18.88C46.1846 19.0533 46.058 19.2133 45.938 19.36C45.818 19.4933 45.658 19.6067 45.458 19.7C45.1113 19.8867 44.778 19.9267 44.458 19.82C44.3646 19.8067 44.278 19.7667 44.198 19.7C44.078 19.62 43.9646 19.5267 43.858 19.42C43.7513 19.3133 43.6446 19.1867 43.538 19.04C43.258 18.6933 42.9846 18.3267 42.718 17.94C42.4646 17.54 42.2846 17.2333 42.178 17.02C41.9513 17.3267 41.718 17.6333 41.478 17.94C41.238 18.2467 40.998 18.5533 40.758 18.86C40.5846 19.0733 40.418 19.2667 40.258 19.44C40.1113 19.6133 39.858 19.7267 39.498 19.78C39.2313 19.82 38.9913 19.8267 38.778 19.8C38.5646 19.76 38.3846 19.6533 38.238 19.48C38.078 19.3067 37.998 19.1267 37.998 18.94C37.998 18.74 38.038 18.5467 38.118 18.36C38.2113 18.1733 38.3246 17.9933 38.458 17.82C38.5913 17.6333 38.7113 17.46 38.818 17.3L40.058 15.36C40.178 15.12 40.2846 14.9267 40.378 14.78C40.4846 14.62 40.5713 14.4667 40.638 14.32C40.7046 14.1733 40.758 14.02 40.798 13.86C40.838 13.7 40.858 13.4867 40.858 13.22V11.52C40.858 11.24 40.9113 10.9933 41.018 10.78C41.0846 10.6333 41.1846 10.48 41.318 10.32C41.3846 10.2267 41.4913 10.16 41.638 10.12C41.7846 10.0667 41.9313 10.0267 42.078 10H42.118C42.2513 9.97333 42.3646 9.96667 42.458 9.98C42.5513 9.98 42.6513 9.99333 42.758 10.02C42.8246 10.0467 42.8846 10.0733 42.938 10.1C42.9913 10.1267 43.0446 10.1533 43.098 10.18C43.1646 10.22 43.2446 10.28 43.338 10.36C43.4446 10.44 43.5246 10.5333 43.578 10.64C43.6446 10.76 43.6913 10.8933 43.718 11.04C43.758 11.1733 43.7913 11.32 43.818 11.48V12.94C43.818 13.2067 43.8113 13.44 43.798 13.64C43.7846 13.8267 43.7846 14.0133 43.798 14.2C43.8113 14.3733 43.8446 14.5467 43.898 14.72C43.9646 14.8933 44.0646 15.08 44.198 15.28C44.3046 15.5067 44.418 15.7333 44.538 15.96C44.658 16.1867 44.778 16.42 44.898 16.66C45.0446 16.4733 45.178 16.2933 45.298 16.12C45.418 15.9467 45.5446 15.7333 45.678 15.48C45.918 15 46.098 14.5933 46.218 14.26C46.3513 13.9133 46.418 13.58 46.418 13.26V12.14ZM39.038 24.28C38.8246 24.2667 38.6113 24.24 38.398 24.2C38.198 24.1467 38.018 24.08 37.858 24C37.698 23.9067 37.5646 23.78 37.458 23.62C37.3646 23.46 37.318 23.2467 37.318 22.98C37.318 22.7133 37.4046 22.48 37.578 22.28C37.6846 22.1733 37.818 22.0933 37.978 22.04C38.138 21.9867 38.2913 21.9467 38.438 21.92C38.5846 21.8933 38.7113 21.88 38.818 21.88C38.938 21.88 39.0046 21.88 39.018 21.88L50.158 21.9C50.5046 21.9 50.818 21.9067 51.098 21.92C51.3913 21.92 51.6513 22.0133 51.878 22.2C52.158 22.4533 52.298 22.74 52.298 23.06C52.298 23.26 52.238 23.4467 52.118 23.62C51.998 23.78 51.838 23.8933 51.638 23.96C51.3713 24.0667 51.0913 24.14 50.798 24.18C50.518 24.22 50.238 24.2467 49.958 24.26C48.9846 24.3 47.9913 24.3133 46.978 24.3C45.9646 24.2867 45.0113 24.28 44.118 24.28C43.158 24.28 42.218 24.2867 41.298 24.3C40.3913 24.3133 39.638 24.3067 39.038 24.28ZM67.9592 24.14C67.9326 24.3 67.9126 24.46 67.8992 24.62C67.8859 24.7667 67.8526 24.92 67.7992 25.08C67.7726 25.1333 67.7526 25.18 67.7392 25.22C67.7259 25.26 67.7059 25.3067 67.6792 25.36C67.5859 25.5467 67.4659 25.6933 67.3192 25.8C67.0126 25.9867 66.6726 26.0333 66.2992 25.94C66.0859 25.9 65.9126 25.82 65.7792 25.7C65.6592 25.5933 65.5659 25.4533 65.4992 25.28C65.4459 25.12 65.3992 24.96 65.3592 24.8C65.3326 24.64 65.3192 24.5 65.3192 24.38C65.3192 24.26 65.3192 24.1933 65.3192 24.18V11.82C65.3192 11.66 65.3192 11.4867 65.3192 11.3C65.3192 11.1133 65.3326 10.9267 65.3592 10.74C65.3859 10.5533 65.4259 10.38 65.4792 10.22C65.5326 10.06 65.6059 9.93333 65.6992 9.84C65.8459 9.69333 65.9992 9.60667 66.1592 9.58C66.3192 9.54 66.4926 9.52 66.6792 9.52C66.9059 9.52 67.1126 9.58667 67.2992 9.72C67.4992 9.84 67.6392 10.0133 67.7192 10.24C67.8392 10.52 67.9059 10.8133 67.9192 11.12C67.9326 11.4267 67.9459 11.7333 67.9592 12.04V12.14C67.9859 13.1667 67.9926 14.22 67.9792 15.3C67.9659 16.38 67.9592 17.4 67.9592 18.36V23.42C67.9592 23.54 67.9592 23.66 67.9592 23.78C67.9726 23.9 67.9726 24.02 67.9592 24.14ZM58.5192 22.18C58.5059 22.02 58.4992 21.86 58.4992 21.7C58.4992 21.54 58.4992 21.38 58.4992 21.22V14.86C58.4992 14.6467 58.4992 14.4333 58.4992 14.22C58.4992 14.0067 58.4859 13.7867 58.4592 13.56C58.4459 13.4933 58.4259 13.4 58.3992 13.28C58.3859 13.16 58.3459 13.0867 58.2792 13.06C58.2126 13.02 58.1326 13.0067 58.0392 13.02C57.9592 13.02 57.8792 13.0133 57.7992 13C57.7059 12.9867 57.6126 12.9867 57.5192 13C57.4392 13.0133 57.3526 13.0133 57.2592 13H56.3192C56.0926 13.0133 55.8659 13.0133 55.6392 13C55.4126 12.9867 55.1859 12.9867 54.9592 13C54.8526 13.0133 54.7526 13.02 54.6592 13.02C54.5792 13.0067 54.4859 13 54.3792 13C54.2326 13 54.0792 12.9933 53.9192 12.98C53.7592 12.9667 53.6126 12.9133 53.4792 12.82C53.2926 12.6867 53.1659 12.52 53.0992 12.32C53.0326 12.12 52.9992 11.9133 52.9992 11.7C52.9859 11.4467 53.0392 11.1933 53.1592 10.94C53.2259 10.78 53.3126 10.6667 53.4192 10.6C53.4859 10.5333 53.5792 10.48 53.6992 10.44C53.8326 10.3867 53.9459 10.3467 54.0392 10.32C54.3192 10.2533 54.6126 10.22 54.9192 10.22C55.2259 10.2067 55.5259 10.2 55.8192 10.2H59.2992C59.4726 10.2267 59.6526 10.2533 59.8392 10.28C60.0392 10.2933 60.2192 10.3333 60.3792 10.4C60.4859 10.44 60.5859 10.4933 60.6792 10.56C60.7859 10.6267 60.8726 10.7067 60.9392 10.8C61.0592 10.9867 61.1259 11.1733 61.1392 11.36C61.1659 11.5467 61.1926 11.7533 61.2192 11.98C61.2459 12.3533 61.2592 12.7267 61.2592 13.1C61.2592 13.46 61.2592 13.8267 61.2592 14.2V20.76C61.2592 20.7733 61.2592 20.88 61.2592 21.08C61.2726 21.2667 61.2792 21.4933 61.2792 21.76C61.2792 22.0133 61.2792 22.2867 61.2792 22.58C61.2792 22.86 61.2726 23.1067 61.2592 23.32C61.2459 23.4533 61.2259 23.5933 61.1992 23.74C61.1726 23.8867 61.1259 24.0267 61.0592 24.16C61.0059 24.2933 60.9259 24.4133 60.8192 24.52C60.7126 24.6267 60.5726 24.7133 60.3992 24.78C60.1726 24.8733 59.9459 24.92 59.7192 24.92C59.5459 24.92 59.3726 24.8867 59.1992 24.82C59.0259 24.74 58.9059 24.6267 58.8392 24.48C58.6259 24.0533 58.5192 23.58 58.5192 23.06V22.18Z" fill="black"/>
</svg>
